# File created by Blade
# Date/Time:  Wed Jan 21 14:43:55 2015
# Frame Rate: 120.000 fps
#------------------------------------------------------
:FULLY-SPECIFIED
:DEGREES
683
root 14.715358 35.199728 -20.422789 -172.606935 -16.043383 169.294532
Spine -7.497752 -8.935819 49.519330
Head -6.831345 4.959614 28.429859
LeftShoulder -10.626429 -9.294390 12.196469
LeftArm -72.012025 70.647437 -138.474253
LeftForeArm 36.429454 -0.000000 82.957419
LeftHand 6.953374 -0.000000 23.815395
LeftHandThumb1 -26.253704 0.000000 33.147579
RightShoulder -14.023682 -30.545055 -2.020192
RightArm 16.709573 -41.147075 31.602432
RightForeArm -51.988866 -0.000000 128.430982
RightHand -0.693847 -0.000000 -13.629164
RightHandThumb1 -24.326973 -0.000000 -32.862282
LeftUpLeg 2.158581 1.183428 -14.178417
LeftLeg -5.645140 -0.000000 0.000000
LeftFoot -16.116602 19.597555 -12.727432
LeftToeBase 25.709618 -0.000000 -0.000000
RightUpLeg 7.939407 -20.614564 -20.515573
RightLeg -4.795126 -0.000000 0.000000
RightFoot -22.053285 -25.972495 18.119887
RightToeBase 26.532214 -0.000000 -0.000000
684
root 14.727112 35.200219 -20.439245 -172.591215 -15.932058 169.310534
Spine -7.450731 -8.993569 49.534034
Head -6.852946 5.026293 28.443897
LeftShoulder -10.660439 -9.227013 12.170963
LeftArm -72.280098 70.784041 -138.768597
LeftForeArm 36.650421 -0.000000 83.030500
LeftHand 6.154485 -0.000000 24.183075
LeftHandThumb1 -26.253704 0.000000 33.147579
RightShoulder -14.013824 -30.531233 -2.005935
RightArm 16.737342 -41.133955 31.552403
RightForeArm -52.181675 -0.000000 128.432853
RightHand -0.773239 0.000000 -12.989814
RightHandThumb1 -24.326973 -0.000000 -32.862282
LeftUpLeg 2.150435 1.260885 -14.151605
LeftLeg -5.654951 -0.000000 0.000000
LeftFoot -16.143979 19.613670 -12.736430
LeftToeBase 25.711148 -0.000000 -0.000000
RightUpLeg 7.912692 -20.554172 -20.473787
RightLeg -4.846975 -0.000000 0.000000
RightFoot -22.037310 -25.958259 18.076404
RightToeBase 26.604191 -0.000000 -0.000000
685
root 14.738972 35.200956 -20.451826 -172.561980 -15.831998 169.319782
Spine -7.423087 -9.031442 49.549911
Head -6.836240 5.099181 28.453166
LeftShoulder -10.593858 -9.263355 12.180228
LeftArm -72.542330 70.768805 -139.068723
LeftForeArm 36.744914 0.000000 83.036486
LeftHand 5.872146 0.000000 24.281574
LeftHandThumb1 -26.253704 0.000000 33.147579
RightShoulder -13.990299 -30.522152 -2.009409
RightArm 16.726013 -41.094693 31.559915
RightForeArm -52.277412 -0.000000 128.466128
RightHand -0.769321 0.000000 -12.805875
RightHandThumb1 -24.326973 -0.000000 -32.862282
LeftUpLeg 2.124276 1.316666 -14.131168
LeftLeg -5.663743 -0.000000 0.000000
LeftFoot -16.163111 19.629884 -12.782495
LeftToeBase 25.718737 -0.000000 -0.000000
RightUpLeg 7.865137 -20.501356 -20.434930
RightLeg -4.882555 -0.000000 0.000000
RightFoot -22.022725 -25.925392 18.064402
RightToeBase 26.529971 -0.000000 -0.000000
686
root 14.749959 35.201301 -20.465799 -172.531964 -15.729447 169.328959
Spine -7.404355 -9.064333 49.574252
Head -6.790711 5.104647 28.438803
LeftShoulder -10.552313 -9.300365 12.180908
LeftArm -72.549334 70.715090 -139.076787
LeftForeArm 36.768185 -0.000000 83.057162
LeftHand 5.800277 0.000000 24.213460
LeftHandThumb1 -26.253704 0.000000 33.147579
RightShoulder -13.950100 -30.491999 -2.043803
RightArm 16.664315 -41.069057 31.644926
RightForeArm -52.342135 -0.000000 128.505751
RightHand -0.648124 -0.000000 -12.503156
RightHandThumb1 -24.326973 -0.000000 -32.862282
LeftUpLeg 2.105786 1.342427 -14.112626
LeftLeg -5.678490 -0.000000 0.000000
LeftFoot -16.169455 19.693397 -12.784033
LeftToeBase 25.689007 -0.000000 -0.000000
RightUpLeg 7.815380 -20.461518 -20.399360
RightLeg -4.909750 -0.000000 0.000000
RightFoot -22.010978 -25.893121 18.018930
RightToeBase 26.568173 -0.000000 -0.000000
687
root 14.761303 35.201936 -20.477371 -172.490781 -15.640476 169.330290
Spine -7.393793 -9.135545 49.611914
Head -6.755852 5.162949 28.416342
LeftShoulder -10.550795 -9.322235 12.150005
LeftArm -72.599366 70.705334 -139.102301
LeftForeArm 36.812774 -0.000000 83.063291
LeftHand 5.641523 -0.000000 24.363069
LeftHandThumb1 -26.253704 0.000000 33.147579
RightShoulder -13.870224 -30.433119 -2.104921
RightArm 16.585921 -41.095189 31.721582
RightForeArm -52.466063 -0.000000 128.535453
RightHand -0.650598 -0.000000 -12.382859
RightHandThumb1 -24.326973 -0.000000 -32.862282
LeftUpLeg 2.069327 1.354949 -14.100215
LeftLeg -5.683311 -0.000000 0.000000
LeftFoot -16.187121 19.751914 -12.812685
LeftToeBase 25.667011 -0.000000 -0.000000
RightUpLeg 7.762503 -20.439952 -20.366732
RightLeg -4.943032 -0.000000 0.000000
RightFoot -21.995566 -25.867047 17.972415
RightToeBase 26.620459 -0.000000 -0.000000
688
root 14.772237 35.202726 -20.489873 -172.465566 -15.542965 169.336410
Spine -7.328272 -9.181838 49.649636
Head -6.816541 5.223125 28.408452
LeftShoulder -10.580368 -9.271921 12.138859
LeftArm -72.471350 70.801857 -138.976680
LeftForeArm 36.913312 -0.000000 83.080570
LeftHand 5.591436 -0.000000 24.194591
LeftHandThumb1 -26.253704 0.000000 33.147579
RightShoulder -13.925441 -30.369522 -2.087989
RightArm 16.646077 -41.114177 31.653195
RightForeArm -52.524758 0.000000 128.552525
RightHand -0.601023 -0.000000 -12.323051
RightHandThumb1 -24.326973 -0.000000 -32.862282
LeftUpLeg 2.050998 1.412266 -14.085162
LeftLeg -5.693641 -0.000000 0.000000
LeftFoot -16.198811 19.769551 -12.841668
LeftToeBase 25.640526 -0.000000 -0.000000
RightUpLeg 7.716193 -20.396006 -20.334851
RightLeg -4.968529 -0.000000 0.000000
RightFoot -21.995965 -25.844002 17.963253
RightToeBase 26.630174 -0.000000 -0.000000
689
root 14.781072 35.203126 -20.504248 -172.438368 -15.439917 169.336357
Spine -7.268484 -9.230306 49.686088
Head -6.862338 5.276673 28.395806
LeftShoulder -10.600653 -9.404782 12.178759
LeftArm -72.811679 70.737644 -139.343540
LeftForeArm 36.784142 -0.000000 83.029657
LeftHand 5.739650 -0.000000 24.358200
LeftHandThumb1 -26.253704 0.000000 33.147579
RightShoulder -13.977909 -30.348313 -2.055857
RightArm 16.730907 -41.171400 31.549929
RightForeArm -52.833085 -0.000000 128.577227
RightHand -0.780961 -0.000000 -12.405526
RightHandThumb1 -24.326973 -0.000000 -32.862282
LeftUpLeg 2.040703 1.480776 -14.079334
LeftLeg -5.715713 -0.000000 0.000000
LeftFoot -16.206617 19.794567 -12.874813
LeftToeBase 25.581038 -0.000000 -0.000000
RightUpLeg 7.682318 -20.335640 -20.313689
RightLeg -5.011087 -0.000000 0.000000
RightFoot -21.973882 -25.841448 17.914787
RightToeBase 26.587130 -0.000000 -0.000000
690
root 14.790468 35.203488 -20.515681 -172.396821 -15.360769 169.335649
Spine -7.255433 -9.279995 49.735521
Head -6.847084 5.304158 28.386071
LeftShoulder -10.605800 -9.460071 12.190392
LeftArm -72.802824 70.696203 -139.323226
LeftForeArm 36.851021 -0.000000 83.086234
LeftHand 5.901385 -0.000000 23.997675
LeftHandThumb1 -26.253704 0.000000 33.147579
RightShoulder -13.951132 -30.319318 -2.086445
RightArm 16.706483 -41.152371 31.592481
RightForeArm -52.799919 -0.000000 128.580647
RightHand -0.507850 0.000000 -12.722425
RightHandThumb1 -24.326973 -0.000000 -32.862282
LeftUpLeg 1.996147 1.553527 -14.071125
LeftLeg -5.699164 -0.000000 0.000000
LeftFoot -16.219317 19.783166 -12.870871
LeftToeBase 25.589373 -0.000000 -0.000000
RightUpLeg 7.629222 -20.307271 -20.287058
RightLeg -5.032524 -0.000000 0.000000
RightFoot -21.975729 -25.791681 17.911580
RightToeBase 26.651721 -0.000000 -0.000000
